HIERARCHY
ROOT RootJoint
{
    OFFSET   0.000000   0.000000   0.000000
    CHANNELS 6 Xposition Yposition Zposition Xrotation Yrotation Zrotation
    JOINT pelvis_lowerback
    {
        OFFSET   0.000000   0.093605   0.000000
        CHANNELS 3 Xrotation Yrotation Zrotation
        JOINT lowerback_torso
        {
            OFFSET   0.000000   0.100000   0.000000
            CHANNELS 3 Xrotation Yrotation Zrotation
            JOINT torso_head
            {
                OFFSET   0.000000   0.282350   0.000000
                CHANNELS 3 Xrotation Yrotation Zrotation
                End Site
                {
                    OFFSET   0.000000   0.192650   0.000000
                }
            }
            JOINT rTorso_Clavicle
            {
                OFFSET  -0.001000   0.157500   0.000000
                CHANNELS 3 Xrotation Yrotation Zrotation
                JOINT rShoulder
                {
                    OFFSET  -0.117647   0.000000   0.000000
                    CHANNELS 3 Xrotation Yrotation Zrotation
                    JOINT rElbow
                    {
                        OFFSET  -0.245000   0.000000   0.000000
                        CHANNELS 3 Xrotation Yrotation Zrotation
                        JOINT rWrist
                        {
                            OFFSET  -0.240000   0.000000   0.000000
                            CHANNELS 3 Xrotation Yrotation Zrotation
                            End Site
                            {
                                OFFSET  -0.116353  -0.002500   0.000000
                            }
                        }
                    }
                }
            }
            JOINT lTorso_Clavicle
            {
                OFFSET   0.001000   0.157500   0.000000
                CHANNELS 3 Xrotation Yrotation Zrotation
                JOINT lShoulder
                {
                    OFFSET   0.117647   0.000000   0.000000
                    CHANNELS 3 Xrotation Yrotation Zrotation
                    JOINT lElbow
                    {
                        OFFSET   0.245000   0.000000   0.000000
                        CHANNELS 3 Xrotation Yrotation Zrotation
                        JOINT lWrist
                        {
                            OFFSET   0.240000   0.000000   0.000000
                            CHANNELS 3 Xrotation Yrotation Zrotation
                            End Site
                            {
                                OFFSET   0.116353  -0.002500   0.000000
                            }
                        }
                    }
                }
            }
        }
    }
    JOINT rHip
    {
        OFFSET  -0.100000  -0.051395   0.000000
        CHANNELS 3 Xrotation Yrotation Zrotation
        JOINT rKnee
        {
            OFFSET   0.000000  -0.410000   0.000000
            CHANNELS 3 Xrotation Yrotation Zrotation
            JOINT rAnkle
            {
                OFFSET   0.000000  -0.390000   0.000000
                CHANNELS 3 Xrotation Yrotation Zrotation
                JOINT rToeJoint
                {
                    OFFSET   0.000000  -0.050000   0.130000
                    CHANNELS 3 Xrotation Yrotation Zrotation
                    End Site
                    {
                        OFFSET  -0.010000   0.002000   0.060000
                    }
                }
            }
        }
    }
    JOINT lHip
    {
        OFFSET   0.100000  -0.051395   0.000000
        CHANNELS 3 Xrotation Yrotation Zrotation
        JOINT lKnee
        {
            OFFSET   0.000000  -0.410000   0.000000
            CHANNELS 3 Xrotation Yrotation Zrotation
            JOINT lAnkle
            {
                OFFSET   0.000000  -0.390000   0.000000
                CHANNELS 3 Xrotation Yrotation Zrotation
                JOINT lToeJoint
                {
                    OFFSET   0.000000  -0.050000   0.130000
                    CHANNELS 3 Xrotation Yrotation Zrotation
                    End Site
                    {
                        OFFSET   0.010000   0.002000   0.060000
                    }
                }
            }
        }
    }
}
MOTION
Frames: 10
Frame Time:   0.008333
 -2.376719   0.925631   3.975860   0.000000   0.000000   0.000000   0.000000   0.000000   0.000000   0.000000   0.000000   0.000000   0.000000   0.000000   0.000000   0.000000   0.000000   0.000000   0.000000   0.000000   0.000000   0.000000   0.000000   0.000000   0.000000   0.000000   0.000000   0.000000   0.000000   0.000000   0.000000   0.000000   0.000000   0.000000   0.000000   0.000000   0.000000   0.000000   0.000000   0.000000   0.000000   0.000000   0.000000   0.000000   0.000000   0.000000   0.000000   0.000000   0.000000   0.000000   0.000000   0.000000   0.000000   0.000000   0.000000   0.000000   0.000000   0.000000   0.000000   0.000000   0.000000   0.000000   0.000000
 -2.376881   0.925852   3.976194  -0.750008  -0.252457  -0.189018   0.718516   0.012753   0.134966   0.253096  -0.190575   0.088389  -0.046557   0.065278   0.170493   0.002834  -0.156173  -0.353625   0.196167   0.502301   2.435613   0.033241   1.788458  -0.007101   0.139054  -0.945314  -2.358153   0.473364   0.352181   0.001398   1.392763   0.161620  -2.174534   0.013440  -0.719355   0.013179   0.235069   0.331592   2.149647   0.633313  -0.099728   0.134407   0.416727   0.000182  -0.001289  -0.144136  -0.003527  -0.140068  -0.080592  -0.000135   0.000251   0.563330   0.110111   0.347702   1.315671  -0.001872  -0.001631  -1.088163   0.602694   0.004620  -0.083867   0.000121  -0.000335
 -2.377123   0.926292   3.976633  -1.558193  -0.712990  -0.405461   1.396009   0.059623   0.268049   0.578601  -0.323411   0.189295  -0.054302   0.116874   0.354455   0.002205  -0.180089  -0.126199   0.353628   1.150735   5.327453   0.075908   3.557769  -0.011820   0.298722  -1.225736  -4.076131   0.942157   0.663073  -0.602261   2.781112   0.247930  -4.843712   0.030431  -1.408609   0.023054   0.526114   0.515568   3.627990   1.246363  -0.202805   0.209546   0.886019   0.000627  -0.003375  -0.275761  -0.008316  -0.271220  -0.159770  -0.000286   0.000598   1.246193   0.234169   0.821235   2.782605  -0.005158  -0.005520  -2.096299   1.175181   0.023596  -0.177319   0.000337  -0.000453
 -2.377408   0.926622   3.977138  -2.330608  -1.280072  -0.624183   2.009632   0.119215   0.384789   0.881417  -0.421316   0.278009  -0.060068   0.162350   0.530947  -0.003354  -0.124789   0.481635   0.464864   1.863419   8.514205   0.117494   5.237657  -0.013749   0.464814  -1.244319  -5.128708   1.385426   0.905174  -1.581941   4.152715   0.232250  -7.828199   0.047110  -2.062181   0.030005   0.810016   0.605717   4.425752   1.782611  -0.307891   0.204666   1.322694   0.001165  -0.005323  -0.399088  -0.014262  -0.394396  -0.238024  -0.000443   0.000949   1.967629   0.357510   1.360826   4.217876  -0.008976  -0.009721  -3.033407   1.709814   0.051906  -0.254757   0.000536  -0.000416
 -2.377723   0.926606   3.977697  -3.051586  -1.898463  -0.842271   2.565562   0.175458   0.484565   1.148975  -0.507148   0.352102  -0.070558   0.203893   0.696731  -0.011575  -0.030730   1.321661   0.528806   2.606732  11.903289   0.153209   6.817510  -0.013582   0.629177  -1.161609  -5.688698   1.800482   1.086036  -2.780907   5.505436   0.108837 -11.022361   0.061741  -2.682660   0.034851   1.085921   0.616375   4.733980   2.242746  -0.412197   0.130012   1.715898   0.001684  -0.006819  -0.515399  -0.020844  -0.510083  -0.316197  -0.000598   0.001268   2.700175   0.481463   1.943285   5.586771  -0.012793  -0.013251  -3.907467   2.208817   0.087326  -0.326838   0.000726  -0.000327
 -2.378017   0.926056   3.978305  -3.720790  -2.539506  -1.062877   3.071825   0.222094   0.576648   1.385146  -0.590100   0.428838  -0.085408   0.241971   0.847056  -0.017645   0.084516   2.345617   0.545766   3.328027  15.273225   0.180178   8.298880  -0.011900   0.786846  -1.032769  -5.826811   2.185028   1.214185  -4.102818   6.835029  -0.123503 -14.359342   0.073594  -3.272145   0.038191   1.354817   0.557044   4.708196   2.635345  -0.513762  -0.001814   2.068843   0.002141  -0.007838  -0.625039  -0.027598  -0.618610  -0.393271  -0.000744   0.001533   3.431242   0.606950   2.553355   6.883545  -0.016238  -0.015842  -4.723610   2.674589   0.128235  -0.396170   0.000901  -0.000221
 -2.378182   0.924908   3.978858  -4.360818  -3.255018  -1.303348   3.563728   0.281131   0.686953   1.605283  -0.656079   0.515273  -0.103811   0.278008   0.985211  -0.023035   0.218262   3.469840   0.521059   4.018107  18.543003   0.198203   9.685702  -0.009390   0.935647  -0.886085  -5.684928   2.537766   1.302349  -5.488849   8.136323  -0.459766 -17.796711   0.082478  -3.830643   0.040534   1.614925   0.445269   4.460533   2.964440  -0.607813  -0.175185   2.392026   0.002544  -0.008666  -0.727534  -0.033511  -0.720063  -0.464319  -0.000863   0.001749   4.094630   0.652075   3.065770   7.928463  -0.017258  -0.018290  -5.606676   3.005914   0.116634  -2.020955   0.005915   0.004945
 -2.378175   0.923023   3.979263  -4.901712  -4.226762  -1.716449   3.908101   0.446957   1.024344   1.915915  -0.609522   0.605002  -0.127515   0.300834   1.082936   0.171922   0.446501   4.069529   0.893913   4.755678  21.538333   0.207671  11.120014  -0.015455   1.125809  -0.762830  -4.738530   3.071466   1.339661  -6.181091   9.446584  -0.992418 -21.621391   0.086961  -4.367476   0.043556   1.885259   0.081115   3.490182   3.029102  -0.716899  -0.165244   3.186980   0.003696  -0.014793  -1.351397  -0.039084  -0.641307  -0.328049  -0.000434   0.000058   4.835246   0.771106   3.435388   8.105451  -0.014158  -0.015957  -5.540768   3.330634   0.098156  -7.287546   0.007576   0.031149
 -2.378194   0.922151   3.979464  -5.394064  -5.049909  -1.921761   4.249595   0.530252   1.170894   2.224221  -0.609764   0.631867  -0.147280   0.318790   1.184372   0.357320   0.662101   4.596737   1.210656   5.464336  24.288575   0.208213  12.462837  -0.019322   1.331840  -0.604969  -3.848911   3.552345   1.338612  -6.796994  10.625323  -1.589401 -25.143032   0.088100  -4.877939   0.045111   2.155298  -0.351632   2.506752   3.115221  -0.839928  -0.309627   3.969463   0.004120  -0.018607  -1.931432  -0.050048  -0.570743  -0.194270  -0.000156  -0.001108   5.516267   1.027508   3.522572   8.144974  -0.011361  -0.012968  -6.320743   3.810081  -0.064072  -6.672305   0.007374   0.024294
 -2.378426   0.921844   3.979513  -5.839254  -5.755156  -2.138378   4.579361   0.579285   1.333652   2.517988  -0.640268   0.645542  -0.161302   0.334688   1.276886   0.531376   0.851598   5.007751   1.478431   6.130960  26.806393   0.202059  13.714517  -0.021379   1.528484  -0.453330  -3.056949   3.982925   1.319981  -7.327464  11.681479  -2.223295 -28.392423   0.086689  -5.362612   0.045345   2.410597  -0.814453   1.593312   3.232141  -0.953215  -0.364112   4.713775   0.003847  -0.020493  -2.472394  -0.060278  -0.505797  -0.071806  -0.000029  -0.001807   6.093259   1.299106   3.621663   8.182539  -0.009116  -0.010524  -6.764073   4.282765  -0.137467  -6.112285   0.006489   0.019419
